<svg width="88" height="31" fill="none" xmlns="http://www.w3.org/2000/svg"><path d="M71.724 18.922c-2.757 2.177-4.849 3.819-6.933 5.48-.702.564-1.418 1.108-2.07 1.77-.906.93-2.244 1.86-1.491 3.73.71 1.76 2.091.97 3.159.544 1.112-.435 2.172-1.137 3.218-1.83 4.716-3.106 9.433-6.232 14.128-9.407 1.25-.84 2.523-1.701 3.62-2.848 2.318-2.424 2.215-4.729-.373-6.549-3.415-2.403-6.933-4.54-10.414-6.765-1.477-.94-2.947-1.94-4.49-2.651-.87-.406-1.872-.277-2.852-.396-.263 2.77.9 3.353 1.909 4.075 2.574 1.85 5.155 3.69 7.73 5.56.906.662 1.784 1.384 2.676 2.917-1.28.198-2.552.475-3.84.574-9.784.722-19.568 1.424-29.353 2.107-14.208.999-28.417 1.968-42.626 3.027-1.155.089-2.289.732-3.722 1.216 1.294 2.661 2.808 2.068 4.095 2.018 6.999-.247 13.99-.603 20.98-.92a68707.31 68707.31 0 0145.113-2.067c.22-.01.446.109 1.521.406l.015.01z" fill="#000"/></svg>