<svg width="32" height="32" fill="none" xmlns="http://www.w3.org/2000/svg"><path d="M22.03 28C12.088 28 4 19.912 4 9.97a7.026 7.026 0 016.12-6.954 1.992 1.992 0 012.091 1.21l2.513 5.862a2 2 0 01-.152 1.873l-2.093 3.184a9.5 9.5 0 004.413 4.4l3.13-2.096a1.979 1.979 0 011.909-.173l5.853 2.514c.816.34 1.314 1.2 1.2 2.087a7.027 7.027 0 01-6.953 6.12L22.03 28zM10.365 5.005A5.018 5.018 0 006.004 9.97c0 8.837 7.19 16.027 16.027 16.027a5.02 5.02 0 004.965-4.363l-5.86-2.516-3.13 2.09c-.58.393-1.338.45-1.975.149a11.52 11.52 0 01-5.357-5.34l-.002-.004a2.018 2.018 0 01.125-1.953l2.095-3.187-2.524-5.867-.002-.001z" fill="#fff"/></svg>