<svg width="88" height="31" viewBox="0 0 88 31" fill="none" xmlns="http://www.w3.org/2000/svg">
<path d="M71.7236 18.9225C68.9667 21.0986 66.8753 22.7406 64.7911 24.4024C64.0891 24.9662 63.3725 25.5102 62.7216 26.1729C61.8148 27.1027 60.4766 28.0325 61.2298 29.902C61.9391 31.6627 63.3213 30.8714 64.3889 30.4461C65.5005 30.0108 66.5608 29.3086 67.6065 28.6161C72.3233 25.5102 77.04 22.3845 81.7348 19.2093C82.9853 18.3685 84.2577 17.508 85.3546 16.3606C87.6728 13.9371 87.5704 11.6324 84.9817 9.81238C81.5666 7.40874 78.0492 5.27218 74.5683 3.04659C73.0911 2.10689 71.6213 1.10785 70.0783 0.39566C69.208 -0.0098915 68.2062 0.118698 67.2263 0C66.963 2.76962 68.1257 3.35322 69.1349 4.0753C71.709 5.92502 74.2904 7.76484 76.8645 9.63433C77.7713 10.2971 78.6488 11.0191 79.541 12.5523C78.2612 12.7502 76.9888 13.0271 75.7018 13.126C65.9173 13.8481 56.1328 14.5504 46.3483 15.2329C32.1396 16.232 17.9309 17.2013 3.7222 18.2597C2.56678 18.3488 1.4333 18.9917 0 19.4764C1.29436 22.1372 2.8081 21.5437 4.09515 21.4943C11.0935 21.247 18.0845 20.8909 25.0755 20.5743C40.1105 19.8819 55.1529 19.1895 70.188 18.507C70.4073 18.4971 70.634 18.6158 71.709 18.9126L71.7236 18.9225Z" fill="black"/>
</svg>
