<svg width="32" height="32" viewBox="0 0 32 32" fill="none" xmlns="http://www.w3.org/2000/svg">
<path d="M22.0296 28C12.0883 28 4 19.9117 4 9.97039C4 6.45211 6.63182 3.46345 10.1201 3.01646C11.0078 2.90128 11.8679 3.39959 12.211 4.22595L14.7239 10.0881C14.988 10.6966 14.9317 11.399 14.5724 11.9612L12.4789 15.1451C13.408 17.0595 14.9743 18.6233 16.8924 19.5449L20.0213 17.4489C20.5847 17.067 21.3009 17.0007 21.9307 17.2761L27.7841 19.7903C28.6004 20.1296 29.0975 20.9897 28.9835 21.8774C28.5365 25.3657 25.5479 27.9962 22.0309 27.9975L22.0296 28ZM10.3655 5.00473C7.87762 5.32776 6.00329 7.46127 6.00329 9.97039C6.00329 18.8074 13.1926 25.9967 22.0296 25.9967C24.5387 25.9967 26.671 24.1211 26.9953 21.6345L21.1344 19.1179L18.0043 21.2088C17.4245 21.6007 16.6671 21.6583 16.0298 21.3566C13.6984 20.2347 11.7991 18.3404 10.6735 16.0166L10.671 16.0128C10.373 15.3893 10.4205 14.6406 10.7962 14.0596L12.8909 10.8731L10.3667 5.00598L10.3655 5.00473Z" fill="white"/>
</svg>
